<?xml version="1.0" standalone="no"?>
<!DOCTYPE svg PUBLIC "-//W3C//DTD SVG 20010904//EN"
 "http://www.w3.org/TR/2001/REC-SVG-20010904/DTD/svg10.dtd">
<svg version="1.0" xmlns="http://www.w3.org/2000/svg"
 width="1321.000000pt" height="1321.000000pt" viewBox="0 0 1321.000000 1321.000000"
 preserveAspectRatio="xMidYMid meet">
<metadata>
Created by potrace 1.14, written by Peter Selinger 2001-2017
</metadata>
<g transform="translate(0.000000,1321.000000) scale(0.100000,-0.100000)"
fill="#000000" stroke="none">
<path d="M6230 12410 c0 -5 -3 -9 -7 -9 -5 1 -10 0 -13 -1 -6 -2 -39 -9 -67
-13 -12 -2 -28 -8 -36 -15 -7 -7 -17 -9 -20 -5 -4 3 -7 1 -7 -6 0 -7 -5 -9
-10 -6 -6 3 -13 -1 -16 -10 -4 -9 -13 -14 -21 -11 -8 3 -11 1 -8 -4 3 -6 1
-10 -5 -10 -19 0 -42 -29 -34 -42 6 -9 3 -9 -9 1 -15 12 -17 11 -17 -3 0 -9
-4 -16 -10 -16 -5 0 -10 -7 -10 -15 0 -8 -9 -20 -19 -27 -15 -9 -17 -15 -9
-25 8 -11 7 -12 -7 -7 -13 5 -16 4 -11 -4 6 -11 -5 -17 -26 -13 -5 0 -8 -3 -8
-9 0 -5 -7 -10 -16 -10 -9 0 -12 5 -8 13 5 7 0 6 -11 -3 -10 -8 -21 -13 -24
-12 -34 20 -43 23 -36 12 6 -9 2 -9 -14 -1 -13 8 -21 8 -21 2 0 -7 -8 -7 -24
-1 -13 5 -27 6 -30 3 -3 -3 -13 0 -23 8 -9 8 -14 9 -10 3 8 -13 -60 -13 -81
-1 -6 5 -12 4 -12 -1 0 -11 -50 -10 -67 1 -6 4 -14 3 -18 -2 -3 -7 -15 -7 -29
-1 -13 5 -27 6 -30 3 -10 -10 -51 -9 -58 2 -5 6 -8 5 -8 -4 0 -11 -3 -11 -15
-1 -8 7 -15 8 -15 3 0 -11 -80 -11 -99 1 -9 6 -12 5 -8 -1 5 -7 -10 -11 -41
-12 -152 -4 -178 -7 -190 -21 -8 -8 -11 -9 -7 -2 7 14 -11 17 -20 2 -3 -5 -12
-7 -20 -3 -9 3 -22 0 -30 -7 -8 -6 -19 -9 -25 -5 -5 3 -10 2 -10 -3 0 -5 -11
-8 -25 -7 -14 2 -23 0 -20 -5 3 -4 -2 -11 -11 -14 -10 -4 -13 -2 -8 7 6 8 3 8
-9 -1 -9 -8 -22 -10 -28 -6 -8 5 -9 3 -4 -6 6 -10 4 -12 -8 -7 -12 4 -17 1
-17 -11 0 -13 -2 -14 -9 -4 -7 11 -9 10 -15 -3 -3 -9 -10 -13 -16 -10 -5 3
-10 0 -10 -7 0 -10 -3 -9 -11 2 -9 12 -10 11 -6 -6 4 -18 1 -20 -16 -16 -14 3
-18 1 -13 -6 4 -7 1 -12 -8 -12 -9 0 -16 -5 -16 -10 0 -6 -6 -9 -12 -8 -7 2
-12 -3 -10 -10 1 -6 -4 -11 -10 -10 -7 2 -12 -2 -11 -8 1 -5 -8 -16 -20 -24
-21 -12 -21 -12 -7 6 14 18 14 18 -2 5 -10 -7 -16 -17 -13 -21 7 -11 -20 -32
-29 -23 -4 4 -4 -1 0 -11 5 -14 4 -17 -4 -12 -7 4 -12 2 -12 -5 0 -6 -7 -17
-16 -23 -8 -6 -17 -20 -18 -31 -2 -13 -10 -19 -21 -17 -9 2 -14 -1 -11 -6 3
-6 -1 -13 -10 -16 -10 -4 -13 -2 -8 7 9 13 -26 -12 -38 -28 -5 -6 -8 -4 -8 5
-1 11 -4 10 -15 -4 -8 -11 -15 -16 -15 -12 0 5 -6 3 -14 -3 -11 -9 -15 -9 -19
1 -4 9 -6 7 -6 -4 -1 -9 -6 -20 -13 -24 -7 -4 -8 -3 -4 4 4 7 2 12 -3 12 -6 0
-11 -5 -11 -12 0 -6 -3 -8 -7 -5 -3 4 -12 -1 -20 -11 -8 -9 -12 -12 -9 -5 5 8
0 8 -18 0 -13 -7 -22 -16 -18 -22 3 -5 -2 -4 -11 4 -15 12 -17 12 -11 -4 5
-13 4 -16 -4 -11 -7 4 -19 3 -29 -2 -11 -7 -21 -6 -31 4 -7 8 -18 12 -23 9 -5
-4 -9 -1 -9 5 0 6 -4 8 -10 5 -5 -3 -7 0 -4 9 4 11 0 14 -16 11 -16 -3 -20 0
-16 10 3 8 2 14 -2 13 -4 -1 -17 3 -29 10 -13 7 -23 9 -23 5 0 -4 -7 1 -15 11
-11 15 -15 16 -16 5 0 -8 -4 -4 -9 8 -6 15 -15 21 -30 18 -11 -2 -20 1 -20 6
0 6 -4 7 -10 4 -5 -3 -10 -2 -10 2 0 8 -18 13 -62 16 -9 1 -14 5 -12 9 3 4 1
8 -5 8 -5 0 -12 -6 -14 -12 -3 -8 -6 -6 -6 4 -1 11 -6 15 -16 12 -8 -4 -15 -1
-15 6 0 9 -4 9 -17 -1 -11 -10 -14 -10 -9 -1 9 14 11 14 -187 17 -88 1 -150
-3 -154 -8 -3 -6 -1 -7 5 -3 7 4 12 2 12 -3 0 -14 -13 -14 -28 1 -9 9 -12 9
-12 0 0 -7 -6 -12 -12 -11 -33 4 -59 -2 -52 -12 4 -8 0 -8 -15 0 -11 7 -21 8
-21 4 0 -4 -11 -13 -25 -20 -14 -6 -23 -7 -19 -2 3 5 1 9 -5 9 -5 0 -12 -4
-16 -9 -3 -6 -14 -8 -25 -6 -12 2 -18 0 -15 -4 3 -5 -2 -12 -11 -15 -8 -3 -13
-2 -10 3 4 5 -5 4 -18 -2 -13 -7 -22 -16 -19 -21 4 -5 1 -6 -6 -2 -6 4 -19 2
-28 -6 -14 -11 -16 -11 -8 2 7 12 6 13 -7 3 -8 -7 -18 -10 -21 -6 -4 3 -7 1
-7 -4 0 -6 -11 -10 -25 -9 -13 2 -24 0 -23 -3 2 -19 -4 -24 -12 -11 -8 13 -10
13 -10 -1 0 -9 -7 -20 -16 -23 -14 -5 -15 -4 -4 9 11 13 10 14 -4 9 -9 -3 -16
-11 -16 -16 0 -6 -7 -8 -15 -4 -8 3 -15 1 -15 -5 0 -6 -4 -8 -9 -5 -5 4 -12 0
-14 -6 -4 -10 -6 -10 -6 0 -1 10 -5 10 -17 -2 -8 -9 -20 -14 -25 -11 -5 4 -9
1 -9 -4 0 -6 -9 -11 -20 -11 -11 0 -20 -5 -20 -11 0 -6 -7 -9 -15 -5 -8 3 -15
1 -15 -4 0 -6 -7 -10 -16 -10 -9 0 -23 -8 -31 -17 -8 -11 -11 -12 -7 -3 7 13
5 13 -9 2 -9 -8 -22 -10 -28 -6 -7 4 -9 3 -5 -4 3 -6 2 -13 -4 -17 -5 -3 -10
0 -10 7 0 8 -5 6 -11 -5 -6 -9 -14 -15 -20 -12 -5 4 -9 2 -9 -4 0 -6 -7 -7
-17 -4 -11 4 -14 3 -9 -5 7 -12 6 -13 -32 -17 -12 -1 -30 -9 -40 -18 -9 -9
-21 -15 -25 -15 -19 1 -66 -25 -61 -34 3 -5 0 -9 -7 -8 -23 3 -59 -12 -59 -24
0 -6 -5 -4 -10 4 -8 13 -10 12 -10 -2 0 -10 -5 -18 -11 -18 -5 0 -7 6 -4 13 4
6 -3 1 -14 -12 -12 -13 -21 -20 -21 -16 0 4 -8 1 -17 -6 -14 -12 -16 -12 -9 1
4 8 -2 4 -14 -10 -12 -14 -19 -19 -15 -13 4 9 1 11 -9 7 -9 -3 -13 -10 -10
-15 3 -5 -4 -9 -16 -9 -12 0 -19 -4 -15 -9 3 -5 1 -12 -5 -16 -5 -3 -10 0 -10
7 -1 8 -6 6 -15 -6 -8 -11 -15 -16 -15 -12 0 5 -6 3 -13 -3 -8 -6 -18 -7 -22
-3 -5 4 -5 1 -1 -5 6 -11 -5 -18 -19 -10 -2 1 -11 -7 -20 -18 -9 -11 -14 -13
-10 -5 4 8 -2 4 -13 -9 -11 -13 -24 -21 -31 -17 -6 4 -11 2 -11 -4 0 -9 -32
-27 -53 -28 -5 0 -20 -13 -34 -29 -14 -15 -23 -23 -19 -16 5 8 0 8 -19 0 -14
-7 -23 -17 -21 -24 3 -7 -1 -10 -9 -7 -8 3 -21 -3 -31 -14 -10 -12 -24 -18
-32 -14 -12 4 -14 1 -8 -14 6 -15 4 -16 -5 -7 -9 9 -16 7 -31 -10 -11 -12 -17
-15 -13 -7 4 8 -3 4 -15 -10 -12 -14 -19 -18 -15 -10 4 8 -2 4 -13 -9 -11 -14
-28 -26 -38 -27 -10 -2 -23 -9 -29 -17 -5 -7 -16 -12 -24 -9 -8 3 -11 0 -7 -7
4 -6 2 -11 -4 -11 -6 0 -9 -4 -5 -9 3 -5 1 -12 -4 -15 -5 -4 -13 -1 -17 5 -5
8 -3 9 6 4 9 -5 11 -4 6 4 -6 9 -11 9 -22 0 -12 -10 -12 -14 -2 -21 8 -6 4 -7
-11 -3 -20 6 -23 4 -18 -9 4 -10 3 -15 -3 -11 -6 3 -10 2 -10 -4 0 -5 -10 -11
-23 -13 -12 -2 -21 -9 -19 -16 1 -8 -2 -11 -8 -7 -5 3 -10 1 -10 -5 0 -6 -4
-9 -9 -5 -6 3 -14 -3 -20 -12 -6 -10 -11 -14 -11 -10 0 4 -6 2 -14 -5 -8 -7
-11 -17 -8 -23 3 -5 -3 -3 -13 5 -11 9 -16 10 -11 3 4 -8 1 -13 -9 -13 -9 0
-13 -4 -10 -10 3 -5 -1 -10 -9 -10 -9 0 -16 -4 -16 -10 0 -5 -7 -10 -16 -10
-10 0 -14 -5 -10 -15 4 -13 2 -14 -14 -5 -16 9 -18 8 -13 -6 4 -12 3 -15 -5
-10 -7 4 -15 1 -18 -8 -3 -9 -13 -16 -21 -16 -8 0 -11 -4 -8 -10 3 -5 0 -10
-7 -10 -7 0 -27 -12 -43 -27 -16 -16 -33 -27 -37 -26 -5 2 -8 -6 -8 -18 0 -13
-4 -18 -12 -13 -6 4 -22 -5 -36 -22 -13 -16 -21 -22 -16 -14 4 8 -6 1 -24 -17
-18 -17 -32 -37 -32 -43 0 -7 -7 -9 -16 -6 -13 5 -15 2 -11 -14 3 -11 1 -17
-4 -14 -11 7 -65 -46 -61 -60 2 -5 -6 -6 -17 -3 -14 3 -18 1 -14 -9 3 -8 0
-14 -6 -14 -6 0 -11 -6 -11 -14 0 -8 -7 -17 -16 -20 -8 -3 -13 -10 -10 -15 3
-5 -3 -11 -14 -14 -11 -3 -20 -12 -20 -21 0 -9 -5 -16 -11 -16 -5 0 -8 -4 -5
-9 3 -5 -1 -11 -9 -15 -8 -3 -15 -12 -15 -21 0 -8 -5 -15 -11 -15 -5 0 -8 -4
-5 -9 3 -5 -1 -12 -10 -15 -9 -4 -14 -13 -10 -21 3 -10 -1 -15 -11 -15 -9 0
-13 -3 -10 -7 4 -3 0 -17 -9 -31 -9 -13 -12 -22 -7 -19 5 4 10 0 10 -7 0 -8
-6 -12 -14 -9 -9 3 -11 0 -7 -10 3 -8 1 -18 -5 -22 -6 -3 -11 -17 -11 -30 0
-13 -4 -26 -10 -30 -5 -3 -7 -12 -3 -20 3 -9 -1 -15 -8 -15 -11 0 -11 -3 1
-10 13 -9 13 -11 0 -20 -8 -5 -10 -10 -4 -10 6 0 8 -19 4 -55 -4 -32 -2 -59 4
-65 7 -7 4 -10 -9 -10 -16 0 -17 -2 -6 -9 13 -8 13 -12 0 -27 -9 -11 -9 -15
-1 -10 8 5 12 -1 12 -18 0 -14 -5 -26 -11 -26 -6 0 -5 -6 3 -14 9 -9 13 -34
12 -75 0 -38 3 -61 10 -61 6 0 4 -5 -4 -10 -13 -9 -13 -10 0 -10 13 0 13 -1 0
-10 -10 -6 -11 -10 -3 -10 8 0 11 -11 9 -30 -2 -22 1 -30 13 -31 10 0 11 -2 4
-6 -10 -3 -10 -10 -2 -25 6 -11 7 -18 2 -15 -5 4 -10 0 -10 -8 0 -8 4 -12 9
-9 4 3 8 -11 8 -31 0 -20 4 -34 8 -31 4 3 7 -8 6 -25 -1 -16 2 -29 7 -29 5 0
9 -5 9 -11 0 -5 -6 -7 -12 -4 -7 4 -4 -1 6 -9 15 -12 16 -16 5 -16 -12 0 -12
-2 1 -10 8 -5 11 -10 6 -10 -5 0 -3 -6 3 -13 6 -8 8 -17 5 -20 -3 -3 -2 -12 2
-19 9 -14 12 -24 16 -53 2 -11 8 -23 13 -27 6 -5 4 -8 -5 -8 -13 0 -13 -1 0
-10 8 -5 15 -20 16 -32 0 -13 5 -33 12 -44 6 -12 8 -24 5 -28 -3 -3 -1 -6 5
-6 7 0 12 -12 12 -26 0 -14 4 -23 9 -19 6 3 8 -4 6 -15 -2 -11 1 -20 6 -20 6
0 7 -4 4 -10 -3 -5 -1 -10 5 -10 6 0 8 -4 5 -10 -3 -5 -1 -10 4 -10 6 0 11 -5
11 -11 0 -5 -4 -7 -10 -4 -6 3 -7 -1 -4 -9 3 -9 10 -16 16 -16 5 0 6 -4 3 -10
-3 -5 -2 -10 4 -10 6 0 7 -7 4 -17 -4 -10 -2 -14 4 -10 6 4 14 0 17 -9 4 -10
2 -13 -6 -8 -7 4 -1 -8 12 -26 13 -18 19 -31 13 -27 -7 5 -9 0 -6 -13 3 -11 9
-18 13 -15 4 3 11 -2 14 -11 4 -10 2 -13 -7 -8 -6 4 -1 -5 13 -21 14 -16 19
-25 11 -20 -9 5 -12 3 -9 -6 3 -8 10 -13 16 -12 6 2 9 -6 7 -17 -3 -14 2 -20
13 -20 15 0 15 -2 2 -10 -10 -6 -11 -10 -2 -10 6 0 12 -7 12 -15 0 -8 5 -15
11 -15 5 0 8 -4 5 -9 -9 -14 5 -42 17 -34 6 4 8 0 4 -10 -3 -10 -3 -17 2 -17
9 0 45 -80 42 -93 -1 -5 3 -6 8 -3 11 7 23 -22 14 -36 -3 -7 -1 -8 5 -4 7 4
12 2 12 -5 0 -6 10 -20 22 -30 11 -11 16 -19 9 -19 -7 0 0 -11 14 -25 23 -24
29 -38 26 -57 0 -5 6 -8 15 -8 8 0 12 -4 9 -10 -3 -5 -1 -10 5 -10 6 0 8 -4 5
-10 -3 -5 -1 -10 5 -10 6 0 8 -4 5 -10 -3 -5 -1 -10 5 -10 6 0 8 -5 5 -10 -4
-6 -1 -9 7 -8 7 2 12 -3 10 -9 -1 -7 2 -13 8 -13 5 0 10 -9 10 -20 0 -11 3
-19 8 -19 16 3 32 -1 31 -8 -3 -21 3 -32 22 -38 15 -5 17 -10 9 -20 -8 -10 -6
-15 9 -20 12 -3 21 -11 21 -16 0 -6 4 -8 9 -5 5 4 7 -4 4 -16 -3 -17 -2 -19 5
-9 8 11 11 9 18 -10 4 -13 7 -28 6 -32 -1 -5 2 -6 8 -2 6 3 7 11 4 17 -4 7 -2
8 5 4 6 -4 23 -26 37 -48 18 -29 30 -38 42 -33 9 3 13 3 9 -1 -10 -11 13 -34
34 -34 10 0 24 -9 31 -19 6 -11 18 -17 26 -13 10 3 13 1 8 -6 -5 -8 0 -12 14
-12 12 0 19 -4 16 -8 -5 -8 1 -10 44 -14 11 -1 20 -5 20 -8 0 -3 14 -7 32 -8
18 -2 36 -8 40 -15 4 -7 8 -7 8 -2 0 12 79 13 98 1 7 -4 12 -1 12 8 0 8 4 18
10 21 6 4 7 -1 3 -11 -5 -14 -3 -15 16 -5 12 7 26 9 31 6 6 -4 13 1 16 10 6
13 8 14 15 3 7 -10 9 -11 9 0 0 7 4 10 10 7 5 -3 10 -2 10 4 0 5 9 8 20 6 11
-2 19 -1 16 3 -2 4 2 12 9 19 11 10 15 10 18 0 4 -9 6 -9 6 1 1 6 8 12 16 12
8 0 15 5 15 11 0 5 -5 7 -12 3 -6 -4 -8 -3 -5 3 4 6 19 8 33 5 15 -3 25 -1 22
4 -3 5 4 18 15 29 11 11 16 13 11 5 -7 -12 -3 -12 16 2 14 9 24 21 23 27 -2 6
8 13 21 17 17 4 23 11 19 22 -4 10 -2 13 5 8 6 -3 16 3 22 14 6 11 18 20 28
20 14 0 15 2 2 10 -12 7 -10 9 6 8 13 -1 21 -8 19 -18 -1 -8 5 -21 14 -28 9
-8 10 -11 4 -7 -8 4 -13 0 -13 -10 0 -9 4 -14 8 -11 4 2 7 -15 7 -40 -1 -25 3
-48 8 -51 5 -3 3 -9 -4 -14 -11 -7 -9 -9 6 -9 18 -1 18 -2 3 -11 -9 -5 -15
-16 -12 -24 4 -8 9 -13 13 -11 4 3 6 -11 5 -30 -2 -19 1 -34 7 -34 6 0 6 -7 0
-19 -8 -14 -7 -22 4 -31 11 -9 12 -16 5 -25 -6 -8 -5 -16 3 -25 10 -10 9 -11
-2 -5 -8 5 -6 -3 5 -21 18 -29 18 -29 -1 -14 -19 14 -19 14 -4 -5 9 -11 15
-31 14 -43 -1 -14 5 -26 13 -30 13 -4 12 -7 -4 -13 -18 -7 -18 -8 1 -8 17 -1
17 -3 5 -11 -9 -6 -11 -10 -3 -10 7 0 10 -7 7 -15 -4 -9 0 -15 7 -15 9 0 10
-3 4 -8 -13 -9 -15 -52 -2 -52 5 0 4 -6 -2 -14 -9 -11 -9 -16 0 -22 8 -5 9 -3
4 6 -5 9 -4 11 3 6 9 -5 9 -13 2 -27 -8 -13 -7 -19 0 -19 8 0 8 -6 0 -20 -9
-16 -8 -20 7 -21 11 0 13 -3 6 -6 -15 -5 -18 -33 -4 -33 6 0 10 -21 9 -47 0
-27 1 -50 2 -53 7 -23 3 -131 -5 -134 -6 -3 -5 -5 2 -5 8 -1 9 -11 1 -37 -5
-20 -7 -42 -4 -50 3 -7 1 -16 -5 -20 -6 -3 -8 -12 -5 -20 3 -8 1 -14 -5 -14
-6 0 -7 -5 -4 -10 4 -6 2 -17 -4 -23 -5 -7 -9 -32 -8 -55 2 -32 -1 -42 -13
-43 -11 0 -11 -2 -2 -6 10 -4 10 -8 1 -20 -10 -12 -10 -16 2 -24 8 -5 9 -9 3
-9 -8 0 -11 -22 -10 -64 1 -35 -2 -63 -5 -60 -9 5 -4 -51 6 -67 6 -9 3 -11
-11 -6 -16 6 -17 5 -4 -5 10 -8 14 -27 13 -51 -2 -27 1 -36 10 -30 7 4 6 -1
-2 -11 -12 -14 -12 -19 -2 -26 8 -5 9 -10 3 -14 -6 -3 -9 -14 -7 -24 2 -9 4
-21 4 -25 1 -5 4 -6 9 -4 4 3 8 -6 8 -19 1 -13 -2 -21 -7 -18 -5 3 -6 -2 -3
-10 3 -9 11 -16 16 -16 6 0 5 -6 -2 -15 -10 -12 -10 -15 1 -15 11 0 11 -2 -1
-10 -10 -6 -11 -10 -2 -10 7 0 12 -13 12 -30 0 -16 5 -30 10 -30 7 0 7 -7 -1
-22 -10 -18 -9 -20 4 -15 11 4 14 2 10 -9 -3 -8 1 -22 8 -31 12 -14 12 -16 -1
-8 -13 8 -13 7 -1 -9 12 -14 12 -19 2 -25 -9 -6 -6 -10 10 -14 19 -5 20 -8 9
-21 -8 -11 -9 -16 -1 -16 6 0 11 -9 11 -21 0 -13 4 -18 12 -13 9 5 9 2 -1 -9
-10 -13 -10 -17 -1 -17 7 0 10 -7 7 -15 -4 -8 -1 -17 5 -21 7 -5 8 -2 3 6 -6
9 -4 11 4 5 9 -5 9 -11 2 -18 -7 -7 -3 -16 12 -29 12 -11 16 -17 10 -13 -19 9
-16 -6 4 -22 10 -8 12 -12 6 -8 -9 4 -11 1 -7 -9 3 -9 10 -16 16 -16 5 0 7 -4
4 -9 -3 -4 3 -19 14 -31 19 -22 24 -35 21 -52 0 -5 4 -8 10 -8 5 0 7 -4 4 -10
-3 -5 -1 -10 4 -10 6 0 11 -9 11 -20 0 -12 7 -20 18 -20 14 0 15 -2 2 -10 -14
-9 -7 -15 14 -11 5 1 3 -6 -5 -15 -9 -12 -9 -15 -1 -10 7 4 12 2 12 -4 0 -6 4
-8 10 -5 6 3 7 -1 4 -9 -4 -10 -1 -16 7 -16 7 0 9 -3 6 -6 -4 -4 2 -14 12 -23
10 -9 17 -24 15 -34 -2 -15 0 -16 14 -5 9 7 14 8 9 3 -4 -4 0 -16 9 -26 9 -10
14 -25 10 -34 -3 -9 -2 -14 3 -11 11 7 45 -23 54 -47 4 -10 11 -15 17 -12 6 3
7 -1 4 -9 -4 -11 0 -16 12 -16 9 0 15 -3 11 -6 -3 -3 6 -17 20 -30 13 -12 22
-27 19 -32 -3 -6 2 -9 12 -8 9 0 21 -9 27 -21 5 -13 15 -23 22 -23 12 0 18
-14 14 -34 -1 -5 5 -4 13 3 12 10 14 9 8 -11 -5 -21 -4 -22 11 -9 15 12 17 12
11 -4 -5 -13 -4 -16 4 -11 8 5 12 0 12 -13 0 -15 6 -21 21 -21 11 0 17 -4 14
-10 -3 -6 4 -10 17 -10 18 0 20 -2 8 -10 -12 -8 -12 -10 -1 -10 18 0 61 -46
52 -57 -3 -4 3 -1 13 7 18 14 19 13 13 -2 -4 -11 -2 -17 6 -15 7 1 11 -4 10
-10 -2 -7 8 -15 22 -19 14 -3 25 -10 25 -15 0 -5 11 -15 25 -21 19 -8 22 -14
13 -20 -9 -5 -6 -8 10 -8 13 0 21 -4 18 -8 -3 -5 7 -15 22 -23 15 -8 33 -21
40 -29 12 -13 13 -13 7 0 -4 10 -2 9 8 -2 8 -10 18 -14 22 -10 5 4 5 -1 2 -10
-4 -11 -2 -17 6 -15 7 1 11 -4 9 -12 -3 -12 0 -12 12 -1 10 7 16 8 16 2 0 -6
9 -13 20 -17 11 -3 19 -11 17 -18 -1 -6 4 -12 11 -13 6 -1 15 -3 20 -4 4 -1
10 -2 14 -1 4 0 5 -5 2 -13 -3 -9 2 -13 18 -12 14 1 26 -7 34 -21 6 -13 14
-20 17 -16 4 3 7 1 7 -5 0 -7 7 -12 15 -12 8 0 15 -5 15 -11 0 -6 7 -8 16 -5
14 5 15 4 5 -8 -10 -12 -9 -14 8 -9 14 3 23 0 27 -11 3 -9 13 -16 21 -16 8 0
11 -4 8 -10 -3 -6 1 -7 9 -4 9 3 16 1 16 -6 0 -6 5 -8 10 -5 6 3 10 1 10 -4 0
-6 7 -11 16 -11 8 0 13 -4 9 -9 -3 -5 5 -11 17 -13 13 -2 22 -9 21 -15 -2 -7
6 -10 17 -8 12 2 18 0 15 -6 -4 -5 1 -9 10 -9 10 0 13 -5 9 -12 -4 -6 -3 -8 4
-5 15 10 42 -3 42 -20 0 -8 4 -12 9 -9 8 5 8 -15 1 -34 -1 -3 -2 -8 -1 -12 0
-5 -4 -8 -11 -8 -6 0 -8 -3 -5 -6 9 -10 -58 -74 -78 -74 -9 0 -13 -4 -10 -10
3 -5 1 -11 -4 -11 -6 -1 -15 -3 -21 -4 -5 -1 -15 -3 -22 -4 -6 0 -8 -4 -5 -8
7 -7 -51 -38 -66 -35 -4 1 -6 -4 -5 -10 2 -7 -4 -13 -12 -13 -8 0 -25 -10 -38
-23 -12 -13 -27 -20 -34 -16 -8 5 -9 2 -5 -10 4 -9 3 -15 -2 -12 -11 7 -63
-33 -56 -44 3 -4 -3 -7 -13 -6 -9 0 -16 -5 -15 -11 2 -7 -8 -15 -22 -19 -14
-3 -23 -10 -20 -14 3 -4 -2 -11 -11 -14 -9 -3 -12 -11 -8 -18 5 -8 2 -9 -10
-5 -10 4 -15 3 -11 -3 3 -6 1 -10 -4 -10 -6 0 -11 -7 -11 -15 0 -8 -6 -15 -14
-15 -14 0 -31 -28 -27 -45 2 -5 -1 -7 -5 -3 -9 10 -44 -30 -44 -51 0 -13 -2
-14 -9 -2 -7 11 -10 9 -13 -10 -2 -14 -9 -23 -17 -21 -12 3 -12 0 0 -14 9 -12
10 -15 1 -10 -8 5 -15 -2 -22 -18 -5 -14 -15 -26 -21 -26 -7 0 -9 -3 -6 -7 4
-3 -1 -12 -11 -20 -10 -9 -11 -12 -2 -7 10 5 8 -1 -5 -16 -11 -13 -14 -20 -6
-15 10 5 12 4 7 -3 -4 -7 -14 -12 -21 -12 -9 0 -12 -6 -9 -15 4 -8 1 -15 -6
-15 -6 0 -8 -4 -5 -10 3 -5 1 -10 -6 -10 -7 0 -9 -10 -6 -25 3 -18 -2 -30 -17
-40 -11 -8 -17 -15 -12 -15 5 0 3 -7 -4 -15 -6 -8 -9 -18 -6 -24 3 -5 -1 -11
-9 -15 -10 -3 -13 -16 -11 -35 2 -17 -1 -28 -5 -25 -5 3 -9 -4 -9 -16 0 -12
-4 -18 -10 -15 -5 3 -7 0 -4 -8 3 -8 0 -18 -6 -22 -8 -5 -7 -11 2 -23 11 -13
11 -14 -1 -7 -11 6 -13 4 -8 -8 4 -10 2 -17 -5 -17 -7 0 -7 -4 1 -14 10 -11 8
-17 -6 -25 -11 -6 -13 -11 -5 -11 7 0 10 -5 7 -10 -4 -6 -11 -7 -17 -4 -6 4
-6 -1 1 -14 14 -26 14 -35 1 -27 -5 3 -10 3 -11 -2 -5 -50 -4 -73 5 -73 6 0 6
-4 -1 -11 -6 -6 -9 -18 -6 -27 5 -11 2 -13 -6 -7 -10 6 -11 3 -2 -12 7 -14 7
-24 -2 -33 -9 -10 -9 -11 1 -6 7 5 12 1 12 -9 0 -9 -4 -14 -8 -11 -11 7 -9
-48 3 -56 7 -5 7 -8 0 -8 -5 0 -10 -11 -10 -24 0 -13 4 -22 9 -18 5 3 7 -2 3
-11 -3 -9 -2 -19 4 -23 6 -3 6 -10 1 -17 -11 -15 -14 -77 -3 -77 11 0 8 -44
-4 -52 -6 -5 -3 -8 7 -8 11 0 15 -5 12 -15 -3 -8 -2 -20 2 -27 4 -6 9 -25 11
-40 5 -46 7 -53 23 -60 12 -5 11 -7 -3 -7 -10 -1 -15 -6 -12 -11 4 -6 11 -8
16 -5 5 3 6 -1 3 -9 -4 -9 -1 -16 6 -16 10 0 10 -3 0 -15 -10 -12 -9 -15 6
-15 16 0 17 -2 4 -10 -11 -7 -11 -10 -2 -10 7 0 10 -4 7 -10 -3 -5 -1 -10 4
-10 6 0 10 -3 9 -7 -4 -14 13 -53 23 -53 5 0 9 -5 9 -11 0 -5 -6 -7 -12 -3
-14 8 20 -36 37 -48 6 -5 6 -8 1 -8 -6 0 -1 -7 10 -15 19 -15 19 -15 -1 -9
-17 6 -17 4 3 -11 13 -9 27 -28 32 -41 5 -13 17 -24 26 -24 13 0 14 -3 4 -15
-12 -15 -4 -21 23 -16 5 1 6 -3 3 -8 -3 -5 1 -11 9 -15 8 -3 15 -10 15 -16 0
-6 7 -18 15 -27 8 -8 13 -19 10 -24 -4 -5 2 -6 11 -2 13 5 15 3 9 -7 -6 -10
-4 -12 8 -7 11 4 15 1 12 -12 -2 -12 2 -18 13 -17 9 0 16 -5 14 -12 -1 -8 1
-11 6 -8 5 3 15 -3 24 -13 18 -21 30 -74 15 -64 -6 4 -8 0 -4 -10 3 -10 2 -17
-4 -17 -6 0 -7 -4 -4 -10 3 -5 2 -10 -4 -10 -6 0 -8 -6 -5 -14 3 -8 1 -17 -5
-20 -6 -4 -7 -15 -1 -30 5 -15 5 -27 -3 -35 -8 -8 -8 -11 2 -11 11 0 11 -3 0
-17 -10 -11 -10 -14 -1 -9 7 4 12 1 12 -9 0 -10 5 -13 13 -9 8 5 8 2 -2 -9
-12 -15 -11 -17 4 -17 11 0 15 -5 11 -16 -3 -8 -2 -12 3 -9 5 3 13 -4 16 -16
6 -17 9 -19 16 -8 5 9 9 9 9 3 0 -7 18 -22 41 -33 22 -12 37 -16 33 -9 -4 7 1
6 12 -3 23 -19 57 -33 49 -19 -3 5 4 8 14 7 19 -1 19 -2 3 -21 -17 -19 -16
-19 8 -3 34 22 32 22 57 9 16 -9 23 -9 26 1 4 9 6 9 6 -1 1 -7 5 -11 9 -8 12
7 73 9 100 2 21 -5 22 -3 10 12 -12 16 -11 15 14 0 19 -13 28 -14 31 -5 3 9 7
9 19 -1 13 -10 17 -10 22 4 4 11 10 13 19 6 14 -12 76 -11 96 2 10 6 12 6 7
-2 -9 -16 7 -15 22 0 9 9 12 9 12 -1 0 -11 3 -11 15 -1 11 9 15 9 15 1 0 -7 5
-9 12 -5 20 12 52 12 60 0 6 -8 8 -7 8 1 0 7 7 10 15 7 11 -5 14 -2 9 12 -6
17 -5 17 9 -1 9 -11 17 -15 17 -10 0 6 12 10 28 9 15 0 30 4 34 10 5 7 8 6 8
-3 0 -11 3 -11 15 -1 12 10 15 10 15 -1 0 -9 3 -10 8 -4 10 14 32 17 32 4 0
-5 4 -7 10 -4 6 3 10 -1 10 -11 0 -14 3 -14 15 -4 13 11 14 10 9 -3 -3 -9 -1
-22 5 -29 39 -46 51 -62 51 -70 0 -5 4 -6 10 -3 6 3 10 -1 10 -9 0 -14 12 -20
33 -17 7 1 11 -15 8 -31 -1 -7 22 -12 42 -9 4 0 7 -6 7 -14 0 -8 6 -12 14 -9
8 3 16 -4 19 -17 5 -17 9 -20 19 -12 9 8 16 7 25 -2 6 -7 9 -16 6 -19 -4 -3
-1 -6 5 -6 7 0 12 6 12 13 0 8 3 7 9 -3 6 -8 7 -19 3 -25 -3 -5 2 -4 11 4 14
11 17 11 17 0 0 -12 2 -12 9 0 6 8 10 9 12 2 2 -6 21 -12 41 -13 21 -2 38 -6
38 -9 0 -3 11 -5 25 -4 14 2 25 -2 25 -8 0 -7 5 -5 10 3 6 10 10 11 10 3 0 -7
5 -13 11 -13 5 0 7 6 4 13 -4 6 1 3 9 -7 9 -11 16 -15 16 -10 0 12 53 12 61 0
4 -4 17 -3 29 4 15 8 20 8 16 1 -8 -12 21 -11 41 2 6 4 14 3 17 -1 6 -10 42
-9 52 1 4 3 15 2 25 -3 12 -7 19 -6 22 3 4 9 6 9 6 -1 1 -10 6 -10 21 -2 15 8
20 8 20 -2 0 -8 3 -9 8 -3 10 14 62 15 62 1 0 -6 5 -4 10 4 5 8 10 11 10 5 0
-5 5 -3 10 5 5 8 10 10 10 3 0 -13 37 -6 59 11 11 8 13 8 7 -1 -4 -7 -3 -13 3
-13 5 0 12 4 16 9 3 6 14 8 25 6 11 -2 26 3 34 11 11 10 15 11 19 1 3 -9 7 -9
19 0 8 7 19 9 23 5 5 -4 5 2 1 12 -5 16 -4 17 9 6 12 -10 15 -10 15 1 0 11 2
11 10 -1 9 -14 15 -7 11 14 -1 5 5 4 13 -3 13 -11 17 -10 22 3 3 9 10 14 14
11 5 -3 12 1 17 8 9 14 42 31 56 28 5 -1 6 3 3 8 -5 8 23 24 46 26 3 0 10 4
15 9 5 5 3 6 -4 2 -8 -4 -13 -1 -13 8 0 10 6 13 15 10 8 -4 15 -1 15 5 0 6 5
11 11 11 5 0 7 -6 4 -12 -4 -7 0 -5 8 5 16 19 32 24 21 5 -5 -7 -3 -8 7 -2 20
12 38 14 45 3 3 -5 13 -5 25 1 10 6 19 7 19 2 0 -5 7 -9 15 -9 8 0 15 5 15 11
0 8 2 8 8 0 9 -14 45 -27 37 -13 -4 6 3 7 21 3 21 -6 25 -4 19 7 -7 11 -5 11
9 -1 10 -8 32 -13 48 -12 17 1 36 -2 43 -8 10 -8 16 -6 24 7 6 10 11 13 11 7
0 -7 9 -14 21 -17 16 -4 19 -2 15 10 -5 12 -4 13 7 5 8 -7 17 -9 20 -5 4 3 7
1 7 -6 0 -7 5 -9 11 -6 5 4 21 8 35 10 19 2 24 -1 19 -13 -4 -12 -3 -13 10 -2
8 7 15 9 15 5 0 -4 8 -1 17 6 13 11 15 11 9 1 -6 -11 -1 -12 23 -9 17 3 34 1
37 -5 4 -6 10 -5 15 3 8 12 11 11 19 -1 7 -11 10 -11 10 -2 0 10 5 10 20 2 15
-8 20 -8 21 2 0 7 4 4 9 -7 5 -11 9 -14 9 -7 1 16 38 16 44 0 4 -10 6 -9 6 1
1 11 4 11 18 0 11 -10 14 -10 9 -1 -4 6 -2 12 3 12 6 0 11 -5 11 -11 0 -8 6
-7 17 2 11 10 14 10 9 2 -7 -13 7 -18 29 -13 6 2 19 2 30 2 10 -1 25 3 31 9 8
7 14 7 19 -1 9 -15 38 -13 29 3 -6 10 -4 10 7 0 7 -7 17 -13 22 -13 4 0 5 6 1
13 -4 6 3 3 15 -7 19 -17 21 -17 15 -3 -5 13 -2 16 10 11 9 -3 13 -11 9 -18
-3 -6 3 -2 15 8 22 19 22 19 22 0 0 -15 2 -16 9 -5 5 8 17 16 25 17 9 1 14 -2
10 -7 -3 -5 -1 -9 5 -9 5 0 13 5 16 10 5 8 11 7 21 -1 13 -11 18 -6 15 14 -1
5 3 5 9 2 6 -4 9 -13 6 -21 -4 -10 1 -10 21 3 15 10 24 12 20 6 -5 -7 -4 -13
2 -13 6 0 11 6 11 13 0 8 4 7 10 -3 8 -13 10 -13 10 -1 0 12 3 12 12 3 15 -15
32 -16 23 -2 -8 13 18 8 27 -5 5 -6 8 -5 8 4 0 11 3 11 15 1 8 -7 15 -9 15 -5
0 4 7 1 17 -6 15 -13 15 -12 5 7 -9 18 -8 20 8 19 11 -1 23 -5 27 -10 5 -4 2
-5 -6 0 -10 6 -12 4 -6 -4 5 -9 10 -10 18 -2 15 15 30 14 22 -1 -4 -7 -1 -6 7
2 13 15 61 23 53 9 -3 -4 2 -10 11 -13 8 -3 12 -2 9 4 -3 6 -2 10 3 10 6 0 13
-7 16 -15 3 -9 12 -15 19 -13 13 3 34 -12 69 -49 17 -18 24 -20 35 -11 11 9
15 7 20 -11 4 -17 8 -19 19 -10 11 9 14 8 14 -1 0 -8 3 -11 6 -7 3 3 17 2 30
-3 17 -7 24 -6 25 3 1 6 5 1 9 -13 6 -17 8 -20 9 -7 1 15 3 16 15 5 8 -7 11
-17 8 -23 -3 -5 2 -4 11 4 14 11 17 11 17 0 0 -11 3 -11 11 1 9 12 10 11 6 -6
-3 -13 1 -21 9 -21 7 0 11 4 9 8 -3 4 2 10 10 13 9 3 18 -1 22 -9 4 -12 9 -13
18 -5 10 8 15 8 21 -1 5 -8 3 -9 -6 -4 -8 5 -11 4 -6 -3 4 -6 13 -9 21 -6 8 4
12 11 8 18 -4 6 1 5 10 -2 9 -8 29 -12 44 -11 15 2 34 0 41 -4 8 -5 12 -2 12
8 0 9 5 13 10 10 6 -4 8 -10 5 -15 -3 -5 9 -5 26 0 18 5 43 7 56 4 16 -4 23
-2 23 7 0 11 2 11 10 -1 8 -12 13 -13 29 -3 14 9 22 9 27 2 4 -8 9 -7 15 2 7
12 9 12 9 0 0 -11 3 -11 17 0 15 12 16 12 8 -1 -8 -13 -7 -13 8 -1 14 11 17
11 17 0 0 -9 3 -10 8 -3 4 6 19 10 34 10 14 -1 24 2 21 7 -2 4 7 6 21 3 14 -3
26 -1 26 4 0 4 11 7 25 5 14 -1 25 2 25 6 0 5 5 9 11 9 5 0 8 -4 5 -8 -3 -5 1
-9 8 -9 9 0 12 7 8 15 -4 12 -1 14 13 9 11 -5 23 -1 32 10 14 17 14 17 9 -2
-6 -19 -5 -19 8 -2 8 10 17 18 20 18 23 -3 36 0 32 7 -3 5 1 9 9 9 8 0 15 -5
15 -11 0 -6 4 -4 9 4 6 8 7 18 5 22 -3 4 2 5 10 2 9 -4 16 -1 16 6 0 7 8 10
19 7 15 -4 19 0 16 15 -4 16 -2 18 11 7 12 -10 13 -9 8 5 -5 12 -2 15 10 10
11 -4 16 -1 16 11 0 10 5 15 13 12 10 -4 13 3 12 24 -1 16 0 27 3 24 3 -2 13
0 24 6 15 8 17 13 8 25 -10 11 -9 15 4 20 9 3 16 13 16 21 0 8 6 13 13 10 12
-5 40 17 31 25 -2 3 5 4 16 3 11 -1 22 -4 26 -8 4 -3 13 1 21 9 8 8 19 11 24
8 19 -11 59 -11 59 0 0 7 3 7 8 1 4 -5 18 -11 31 -13 17 -3 21 0 16 10 -6 10
-5 11 6 1 16 -16 33 -17 23 -1 -5 7 -3 8 7 2 23 -14 51 -16 43 -2 -4 7 -3 8 5
4 18 -12 61 -14 67 -5 3 5 17 1 32 -8 21 -14 24 -14 15 -2 -10 12 -8 15 8 15
10 0 19 -4 19 -8 0 -5 10 -4 21 3 16 8 20 8 14 -1 -6 -9 -3 -9 13 -1 15 8 22
8 25 -2 4 -8 8 -8 14 -2 12 15 33 17 33 3 1 -7 10 -2 22 12 l21 25 -8 -23 c-6
-22 -5 -23 15 -12 12 6 28 9 36 6 8 -3 14 -2 14 2 0 5 15 7 32 6 18 -1 36 3
40 9 6 9 8 9 8 0 0 -12 24 -12 36 0 4 3 16 2 27 -4 13 -7 17 -8 13 -1 -4 7 10
10 39 9 25 -1 45 1 45 5 0 4 7 5 15 2 8 -4 23 0 32 7 12 10 15 10 9 2 -4 -7
-3 -13 3 -13 5 0 12 4 15 9 4 5 14 8 24 7 9 -2 20 2 24 8 5 8 8 7 8 -1 0 -7 5
-13 11 -13 5 0 8 4 5 9 -3 5 1 12 10 15 8 3 12 2 9 -4 -3 -6 1 -7 9 -4 9 3 13
11 10 16 -5 7 -1 7 12 0 14 -8 21 -6 32 6 9 12 11 12 6 2 -5 -10 1 -8 16 5 13
11 20 14 16 8 -11 -19 5 -16 21 5 8 9 12 11 8 5 -3 -7 -1 -13 4 -13 6 0 11 5
11 11 0 5 5 7 10 4 6 -3 10 -1 10 6 0 8 5 7 17 -2 11 -10 14 -10 9 -2 -4 8 -1
13 9 13 10 0 13 5 9 13 -5 8 -2 8 9 -2 9 -7 17 -9 17 -3 0 5 7 13 16 16 10 4
13 2 9 -7 -4 -6 2 -2 13 10 15 17 22 19 32 10 7 -7 10 -7 8 -2 -3 6 0 15 7 22
11 10 15 10 18 0 4 -9 6 -9 6 1 1 6 10 12 22 12 14 0 19 5 16 14 -8 20 4 28
20 15 9 -9 13 -8 13 0 0 6 6 10 13 9 6 -2 11 2 10 9 -2 8 4 10 14 6 11 -4 14
-3 9 5 -4 7 -1 13 8 13 32 3 37 4 44 14 4 6 16 15 27 21 11 7 19 19 19 28 -2
13 1 14 11 6 10 -8 14 -4 20 17 5 21 8 24 16 12 7 -12 9 -12 10 1 1 8 1 18 0
23 0 4 5 7 13 7 7 0 20 8 27 18 12 15 12 16 -1 7 -9 -5 -7 -2 3 8 11 9 16 17
13 17 -4 0 -1 6 6 14 7 8 16 12 20 10 4 -3 5 5 3 16 -2 11 1 20 6 20 6 0 7 4
4 10 -3 5 1 10 10 10 9 0 13 5 10 10 -8 13 14 42 26 34 5 -3 6 3 2 12 -4 12
-3 15 5 10 7 -4 10 -2 7 6 -3 8 3 23 14 35 15 16 17 23 8 33 -10 10 -8 11 8 6
15 -6 17 -4 8 5 -9 9 -8 15 3 27 8 8 13 21 10 28 -3 8 -1 14 5 14 6 0 8 4 4 9
-3 5 0 13 6 16 5 4 8 13 5 21 -3 8 -1 14 5 14 6 0 8 4 5 9 -4 5 0 12 6 14 10
4 10 6 1 6 -7 1 -13 6 -13 12 0 5 4 7 10 4 6 -3 7 1 4 9 -4 10 -1 16 7 16 11
0 11 3 -1 10 -12 8 -12 10 5 11 11 0 14 3 7 6 -10 4 -10 8 0 21 10 12 10 14 1
8 -9 -5 -11 -2 -7 8 3 9 10 16 15 16 6 0 5 10 -2 22 -10 18 -9 20 7 14 16 -6
16 -5 -2 15 -10 12 -14 19 -8 16 7 -4 14 2 17 13 3 13 1 18 -6 13 -9 -5 -9 -3
-1 8 6 8 10 24 8 37 -3 15 0 21 7 16 8 -4 8 0 0 15 -9 16 -9 21 1 21 9 0 9 3
-2 10 -13 8 -12 10 4 10 20 0 20 0 0 14 -18 14 -18 15 -2 21 10 4 15 11 12 16
-3 5 -11 6 -17 2 -7 -3 -4 3 6 14 13 15 15 23 7 28 -9 6 -9 10 1 16 12 7 12 9
0 9 -11 0 -11 3 0 17 12 15 12 16 -1 8 -13 -8 -13 -7 -1 8 9 11 10 17 2 17 -6
0 -11 5 -11 11 0 5 4 8 8 5 10 -6 9 30 -1 40 -12 12 -8 52 6 57 6 3 3 6 -8 6
-17 1 -17 3 -5 11 13 9 13 10 0 10 -13 0 -13 1 0 10 8 5 10 10 5 10 -6 0 -10
26 -10 60 1 45 -3 61 -15 65 -13 6 -12 9 4 21 20 14 20 14 0 14 -16 0 -17 2
-4 10 9 6 11 10 3 10 -7 0 -10 7 -7 15 4 8 0 23 -7 32 -12 14 -12 16 1 8 11
-6 11 -4 -2 11 -12 13 -14 24 -7 35 6 12 4 19 -7 23 -12 5 -13 10 -3 27 8 15
8 19 0 15 -7 -5 -11 2 -11 18 0 14 -5 28 -11 32 -8 4 -7 9 2 15 12 7 12 9 0 9
-8 0 -11 6 -7 15 3 9 0 18 -7 21 -7 2 -14 14 -14 26 -1 12 -8 25 -15 29 -7 5
-9 9 -4 9 5 0 2 8 -5 17 -10 12 -10 15 -1 9 8 -5 6 5 -5 27 -10 19 -22 32 -27
29 -5 -3 -7 5 -4 16 4 16 -1 28 -20 43 -17 13 -20 18 -9 15 17 -5 17 -5 0 19
-10 13 -21 25 -25 25 -5 0 -8 9 -8 21 0 11 -4 17 -10 14 -5 -3 -10 3 -10 15 0
11 -7 23 -16 27 -13 5 -13 7 -2 14 9 6 6 9 -12 9 -20 0 -22 2 -10 10 13 8 12
10 -2 10 -10 0 -18 7 -18 15 0 8 -4 15 -10 15 -5 0 -10 8 -10 18 0 14 -2 15
-10 2 -8 -12 -10 -12 -10 5 0 11 -9 26 -20 33 -12 7 -18 18 -14 24 5 8 2 9 -9
5 -12 -4 -17 -1 -17 9 0 9 -9 18 -21 21 -16 5 -18 8 -7 15 9 7 7 8 -10 5 -12
-3 -20 -1 -17 3 3 5 -6 17 -20 26 -14 9 -25 24 -25 33 0 14 -2 14 -10 1 -8
-13 -10 -12 -10 3 0 10 -4 15 -10 12 -5 -3 -10 -1 -10 5 0 6 -4 9 -9 6 -5 -3
-11 1 -15 9 -3 8 -12 15 -21 15 -8 0 -15 4 -15 9 0 5 -9 11 -20 14 -11 3 -20
13 -20 24 0 12 -3 14 -8 6 -6 -10 -16 -7 -40 10 -17 13 -28 28 -24 32 4 5 -1
5 -10 2 -11 -4 -17 -2 -15 6 1 7 -3 11 -8 10 -6 -1 -12 8 -12 20 -1 12 -7 23
-13 25 -5 2 -10 8 -10 13 0 6 6 7 13 4 6 -4 1 3 -12 14 -13 12 -18 21 -11 21
7 0 4 8 -8 19 -12 10 -19 21 -15 25 3 3 0 6 -8 6 -11 0 -11 2 1 10 12 8 10 10
-10 10 -18 0 -21 3 -12 9 11 7 11 9 -2 14 -9 4 -16 12 -16 19 0 8 -9 20 -19
28 -11 7 -18 17 -15 22 3 4 -2 8 -10 8 -9 0 -16 5 -16 11 0 5 6 7 13 3 7 -4 9
-3 4 2 -5 5 -13 9 -19 9 -6 0 -12 8 -14 18 -1 9 2 17 7 17 4 0 5 7 2 17 -4 11
-3 14 5 9 7 -4 12 -2 12 4 0 6 4 9 9 6 5 -3 12 1 15 10 3 8 10 12 16 9 5 -3
10 -1 10 6 0 7 3 9 7 6 3 -4 12 2 20 13 8 11 21 20 29 20 8 0 14 5 14 11 0 5
4 8 9 5 5 -3 16 6 26 20 9 14 19 23 22 21 3 -3 18 7 33 23 15 16 31 26 34 23
3 -4 6 2 6 12 0 10 3 15 7 12 3 -4 13 2 20 13 8 11 18 18 23 15 5 -3 7 4 5 16
-4 18 -2 19 11 8 8 -7 14 -8 12 -3 -3 12 54 70 66 66 5 -2 6 4 3 12 -4 9 -1
18 5 22 7 4 8 3 4 -4 -5 -8 -2 -10 8 -6 9 3 14 10 11 14 -7 11 64 86 77 82 5
-1 7 2 3 8 -3 5 5 21 19 35 14 14 25 29 23 34 -1 4 12 20 28 35 17 16 23 25
15 20 -9 -5 -8 -2 3 8 10 10 16 22 12 28 -4 6 -1 9 7 8 7 -2 12 3 10 10 -1 6
5 12 14 12 8 0 12 5 9 10 -3 6 -1 10 5 10 7 0 9 7 6 16 -5 14 -4 15 8 5 12
-10 13 -9 9 8 -3 13 -1 21 6 21 7 0 10 4 7 9 -3 5 1 12 10 15 9 3 14 12 11 19
-6 15 27 59 37 49 4 -3 4 2 0 12 -5 13 -4 17 4 12 8 -5 10 -2 6 8 -4 9 -1 16
6 16 7 0 10 7 6 16 -3 8 -2 13 3 10 5 -3 15 2 22 11 12 14 12 16 0 9 -9 -6
-12 -5 -9 5 3 8 11 13 18 11 10 -2 10 1 -1 14 -8 10 -9 15 -4 12 6 -4 17 2 24
14 10 16 10 19 -1 13 -7 -3 -5 0 4 8 10 8 14 17 10 21 -4 4 2 14 12 22 13 9
15 14 6 14 -9 0 -7 5 6 15 14 11 16 15 4 15 -12 1 -12 3 2 14 10 7 15 16 11
19 -3 4 -1 7 7 7 10 0 10 4 -1 17 -8 9 -9 14 -4 11 6 -4 15 5 22 18 8 18 8 22
0 17 -7 -3 -1 6 13 22 14 16 18 24 10 20 -12 -7 -13 -6 -3 7 7 8 10 18 6 21
-3 4 -1 7 7 7 10 0 10 3 0 16 -8 8 -9 14 -4 13 21 -4 26 2 13 18 -8 9 -9 14
-4 11 6 -4 17 2 24 14 10 16 10 19 -1 12 -7 -4 -5 2 5 13 9 11 15 22 12 25
-10 9 -14 49 -6 43 5 -3 12 2 15 11 9 23 8 26 -6 18 -9 -5 -9 -3 1 9 7 9 11
26 8 36 -4 15 -1 18 12 13 14 -5 14 -4 2 11 -10 13 -10 17 -1 17 9 0 9 4 -1
17 -10 11 -10 14 -1 9 12 -7 16 3 12 37 -1 10 4 26 12 35 8 10 9 13 1 9 -8 -5
-11 -1 -10 12 0 11 4 18 8 15 4 -2 7 10 7 27 -1 17 5 35 13 40 8 5 9 9 3 9 -6
0 -11 7 -11 15 0 8 3 15 7 15 3 0 6 15 7 33 0 17 1 49 2 70 1 21 5 36 9 33 11
-7 10 38 -2 46 -6 4 -5 12 3 22 7 9 10 24 6 37 -6 16 -4 20 6 13 12 -6 12 -5
0 9 -11 14 -11 17 0 17 11 0 11 2 -1 10 -9 6 -11 10 -3 10 7 0 10 7 6 17 -5
12 -3 14 8 8 12 -8 12 -6 0 9 -13 15 -13 19 0 27 10 6 11 9 1 9 -10 0 -10 5
-1 21 9 17 8 20 -2 14 -8 -5 -10 -4 -5 4 12 20 18 63 7 56 -6 -3 -4 6 3 19 7
14 12 39 11 55 -1 17 2 28 8 24 5 -3 6 3 3 15 -4 12 -2 31 4 43 7 12 8 19 2
15 -5 -3 -13 1 -16 10 -3 8 -2 13 3 10 5 -3 11 1 15 9 3 8 0 15 -7 15 -9 0 -9
2 0 8 8 5 9 13 3 22 -5 8 -5 21 1 32 5 10 7 18 3 18 -3 0 -1 7 7 16 10 13 10
17 0 24 -9 5 -10 10 -2 14 15 10 14 29 -1 21 -7 -4 -4 1 6 9 15 12 16 16 5 16
-12 0 -12 2 1 10 8 5 11 12 8 16 -4 4 -3 15 3 25 7 14 6 19 -2 19 -9 0 -9 3 0
14 9 10 9 16 1 21 -7 4 -8 11 -2 18 5 7 12 25 16 40 5 22 4 27 -6 21 -10 -6
-9 -3 1 9 7 9 10 17 6 17 -4 0 -3 6 4 13 8 10 7 17 -1 25 -9 9 -9 12 0 12 6 0
9 7 5 17 -4 11 -3 14 5 9 7 -4 12 -2 12 3 0 6 -6 11 -12 11 -9 0 -9 3 -3 8 6
4 10 16 10 27 0 11 4 26 10 34 7 11 7 13 -2 7 -9 -5 -11 -2 -7 8 3 9 11 16 18
17 6 0 2 4 -9 9 -15 7 -16 9 -4 9 12 1 15 8 11 26 -2 14 2 33 9 42 10 12 11
15 1 9 -9 -6 -11 -1 -8 18 3 14 7 30 11 36 3 5 -1 10 -10 10 -15 0 -15 1 -1
16 19 19 21 28 4 19 -7 -4 -5 0 5 8 18 15 18 15 0 20 -17 4 -17 5 0 6 10 0 16
5 13 10 -5 7 12 8 47 2 5 0 6 -5 3 -10 -3 -4 2 -17 10 -27 9 -10 13 -12 9 -4
-4 8 2 4 13 -10 12 -14 19 -27 16 -29 -7 -7 28 -41 43 -41 8 0 11 -5 7 -12 -5
-8 -2 -9 11 -4 15 5 16 4 5 -9 -7 -8 -8 -15 -3 -15 16 0 63 -47 55 -55 -4 -4
-2 -6 3 -5 21 5 36 0 30 -10 -3 -5 3 -10 15 -10 12 0 19 -4 16 -9 -4 -5 7 -15
24 -23 16 -7 30 -16 30 -20 0 -5 6 -8 13 -8 7 0 23 -9 34 -19 15 -14 23 -17
32 -8 8 8 11 8 11 -1 0 -7 7 -12 15 -12 8 0 15 -4 15 -10 0 -5 5 -10 11 -10 5
0 7 6 3 13 -6 8 -3 8 9 -1 9 -8 21 -11 27 -7 5 3 10 1 10 -5 0 -6 5 -8 10 -5
6 3 10 1 10 -6 0 -8 3 -9 13 0 8 6 17 8 21 3 12 -11 110 -10 118 2 5 7 8 6 8
-3 0 -11 3 -11 15 -1 12 10 15 10 15 0 0 -10 3 -10 15 0 8 7 22 10 30 6 10 -3
15 1 15 12 0 15 2 15 10 2 6 -10 10 -11 10 -2 0 6 9 12 19 12 11 0 23 5 26 10
4 6 11 8 16 5 5 -4 9 -1 9 4 0 6 9 11 21 11 11 0 17 5 14 10 -3 6 3 10 14 10
11 0 27 9 35 21 8 12 19 18 25 15 7 -5 8 -1 4 10 -4 11 -3 15 5 10 6 -3 14 -1
19 7 4 7 21 20 36 30 15 10 25 22 22 27 -4 6 2 10 12 10 15 0 16 2 3 10 -10 6
-11 10 -3 10 18 0 53 32 47 42 -3 4 2 8 10 8 15 0 21 12 17 33 -1 5 3 6 8 2 6
-3 13 6 17 20 5 22 9 24 23 13 9 -7 13 -8 9 -4 -4 5 -2 16 5 24 10 13 9 14 -3
7 -11 -6 -10 -3 3 12 9 11 14 23 10 26 -3 4 1 7 10 7 9 0 17 7 17 16 0 17 25
46 33 38 3 -3 4 6 3 20 -2 14 1 23 5 20 9 -5 19 11 23 40 1 9 11 23 22 32 10
8 12 13 4 9 -8 -4 -5 2 6 12 12 10 20 26 19 36 -2 9 0 17 5 17 4 0 11 12 14
26 5 18 11 24 23 20 13 -5 14 -4 3 9 -8 10 -9 15 -2 15 6 0 17 19 23 43 7 23
17 47 22 52 7 7 7 5 2 -4 -5 -9 -4 -12 3 -7 6 4 9 13 5 21 -3 8 -1 15 5 15 6
0 8 10 4 22 -4 16 -2 19 8 13 10 -6 12 -3 8 13 -4 12 -2 22 4 22 5 0 8 9 6 20
-2 10 1 19 6 19 16 -1 25 25 13 41 -6 8 -7 12 -3 8 13 -11 37 27 30 46 -4 11
2 19 17 25 18 7 19 10 7 10 -23 1 -23 17 -2 25 9 4 14 9 11 13 -4 3 -1 13 6
21 9 13 9 14 0 8 -9 -5 -11 -2 -7 8 3 9 10 14 14 11 4 -3 10 4 13 15 3 11 1
18 -4 14 -5 -3 -6 2 -3 10 3 9 9 14 13 11 4 -2 8 2 8 10 0 8 -5 11 -11 8 -6
-4 -2 4 9 17 12 14 14 20 5 15 -13 -8 -13 -6 -1 8 7 9 11 26 8 37 -3 11 -1 18
4 15 10 -7 24 43 15 52 -3 4 1 14 10 24 9 10 14 27 11 38 -3 12 0 19 7 18 6
-1 10 8 8 21 -2 13 4 35 14 49 16 25 16 26 -2 19 -17 -6 -17 -6 -1 12 13 14
14 21 4 31 -9 10 -8 11 8 5 18 -7 18 -6 6 9 -9 12 -10 17 -2 17 7 0 10 4 6 9
-3 5 0 13 6 17 8 4 7 9 -2 15 -11 7 -11 9 -1 9 7 0 11 4 7 9 -3 5 -1 12 5 16
5 3 10 1 10 -6 0 -7 2 -10 5 -7 10 10 -7 38 -19 31 -6 -3 -3 3 7 14 12 14 15
23 8 28 -14 8 -14 25 0 25 5 0 7 -5 3 -12 -4 -6 -3 -8 3 -5 6 4 10 31 8 62 -1
31 1 52 7 49 5 -3 7 6 4 20 -3 14 -1 28 3 31 5 2 7 18 5 35 -3 23 0 29 9 24 8
-5 7 -2 -2 9 -11 13 -11 17 -1 17 8 0 10 3 7 7 -4 3 -2 12 4 19 8 10 6 12 -13
9 -20 -4 -21 -3 -7 8 18 14 21 49 5 59 -7 5 -4 8 7 8 14 0 16 4 7 19 -7 14 -6
21 3 24 9 4 9 6 0 6 -9 1 -10 8 -4 24 5 14 5 30 0 40 -7 12 -6 17 2 17 7 0 4
7 -7 15 -19 15 -19 15 1 9 16 -6 18 -4 8 6 -6 7 -9 19 -6 28 5 11 3 13 -8 7
-12 -8 -12 -6 0 8 11 14 11 17 0 17 -11 0 -11 2 1 10 12 8 12 10 1 10 -9 0
-12 8 -9 25 3 14 1 22 -5 18 -5 -3 -6 3 -2 16 4 13 2 21 -5 21 -7 0 -10 8 -7
20 3 11 1 20 -5 20 -5 0 -6 5 -3 11 4 6 -1 17 -11 25 -18 14 -18 14 0 8 16 -6
17 -4 7 14 -6 11 -16 24 -21 27 -6 4 -8 10 -5 15 3 5 -8 23 -24 41 -17 18 -28
36 -25 41 6 10 -21 39 -30 33 -3 -3 -2 0 3 6 10 13 -27 62 -41 53 -7 -5 -13
17 -9 38 0 5 -5 7 -12 5 -6 -1 -11 4 -9 11 1 8 -2 11 -8 7 -5 -3 -10 -2 -10 4
0 5 -9 13 -20 16 -11 4 -18 11 -15 16 4 5 1 9 -5 9 -6 0 -22 11 -36 25 -14 14
-30 22 -36 19 -7 -4 -8 -2 -4 4 4 7 2 12 -4 12 -6 0 -8 5 -5 10 4 6 3 10 -2 9
-21 -4 -34 2 -27 13 5 8 2 9 -9 5 -10 -3 -17 -2 -17 4 0 5 -8 13 -17 16 -25
10 -43 29 -35 38 4 5 -3 5 -15 2 -13 -3 -26 0 -30 5 -4 7 -1 8 7 3 9 -5 11 -4
6 3 -4 7 -13 12 -20 12 -8 0 -19 7 -26 15 -7 9 -20 13 -29 10 -8 -3 -12 -3 -9
1 10 9 -17 34 -36 34 -9 0 -16 5 -16 10 0 6 -7 10 -15 10 -8 0 -15 5 -15 10 0
6 -7 10 -15 10 -8 0 -15 5 -15 11 0 5 -4 7 -10 4 -5 -3 -10 -2 -10 4 0 6 -7 7
-17 4 -10 -4 -14 -2 -10 4 8 13 -59 47 -73 38 -6 -3 -7 1 -4 10 5 11 2 14 -12
8 -12 -4 -15 -3 -10 5 5 8 0 12 -13 12 -13 0 -21 7 -21 18 0 14 -2 15 -10 2
-9 -13 -14 -8 -11 12 0 3 -7 5 -17 4 -9 -2 -23 3 -30 11 -7 7 -22 13 -33 13
-13 0 -18 4 -13 12 5 8 2 9 -9 5 -12 -4 -17 -1 -18 11 0 10 -3 12 -6 5 -3 -10
-7 -10 -18 0 -7 7 -11 15 -9 18 2 3 -8 5 -22 3 -15 -1 -28 4 -31 12 -4 12 -8
12 -21 2 -12 -10 -14 -10 -8 0 4 7 1 12 -8 12 -9 0 -16 5 -16 11 0 6 -9 8 -20
4 -12 -4 -19 -2 -18 3 2 6 0 9 -3 9 -4 -1 -16 6 -26 15 -15 14 -22 15 -33 5
-8 -7 -11 -8 -7 -1 8 14 -20 27 -35 17 -7 -3 -8 -1 -4 5 5 8 0 12 -13 12 -12
0 -21 5 -21 11 0 5 -4 7 -10 4 -5 -3 -10 -2 -10 4 0 5 -9 8 -20 6 -11 -2 -20
1 -20 6 0 6 -5 7 -12 3 -8 -5 -9 -2 -5 10 6 14 3 15 -13 6 -14 -7 -20 -7 -20
0 0 5 -9 10 -21 10 -13 0 -18 4 -13 13 5 7 0 6 -11 -3 -11 -9 -16 -10 -11 -2
6 11 -10 15 -41 11 -3 0 -10 6 -15 15 -5 8 -15 13 -23 10 -8 -4 -15 -1 -15 6
0 9 -4 9 -17 -1 -11 -10 -14 -10 -9 -1 5 8 0 12 -13 12 -12 0 -21 5 -21 12 0
6 -3 8 -7 5 -3 -4 -13 -1 -21 6 -13 10 -15 9 -8 -3 4 -8 0 -6 -8 4 -12 15 -16
16 -16 5 0 -11 -2 -11 -9 -1 -4 7 -18 14 -29 15 -12 1 -22 5 -22 10 0 4 -4 6
-8 3 -5 -3 -21 2 -36 10 -32 16 -49 19 -26 4 9 -6 10 -10 3 -10 -6 0 -19 10
-27 22 -9 12 -16 18 -16 12 0 -6 -7 -11 -15 -11 -8 0 -12 4 -9 9 3 4 -6 8 -20
8 -14 0 -26 4 -26 10 0 12 -22 9 -32 -5 -4 -6 -8 -2 -8 9 0 11 -5 16 -14 13
-7 -3 -19 0 -25 6 -8 8 -11 7 -11 -4 -1 -10 -4 -8 -11 5 -8 13 -13 15 -19 6
-5 -9 -11 -8 -21 3 -8 7 -24 13 -37 12 -12 -1 -22 1 -22 5 0 3 -13 5 -30 4
-16 -1 -30 2 -30 7 0 5 -13 9 -30 9 -17 0 -30 5 -30 13 0 8 -4 7 -10 -3 -8
-12 -10 -12 -10 -1 0 8 -3 11 -6 8 -4 -3 -15 -2 -25 4 -14 7 -19 6 -19 -3 0
-10 -2 -10 -9 0 -4 8 -11 13 -15 13 -3 -1 -7 -1 -8 0 -2 0 -20 2 -41 4 -21 2
-45 9 -54 16 -13 11 -17 12 -21 1 -3 -10 -8 -8 -19 5 -8 10 -12 13 -9 6 8 -15
-30 -11 -64 7 -24 13 -24 12 -10 -5 14 -17 14 -17 -6 -7 -12 6 -24 8 -28 5 -3
-3 -6 -2 -6 3 0 5 -28 9 -63 9 -34 0 -76 2 -94 6 -20 4 -34 3 -37 -5 -3 -8 -5
-8 -5 1 -1 6 -10 9 -23 5 -16 -4 -19 -2 -13 9 7 11 6 12 -6 3 -18 -14 -52 -14
-61 0 -6 8 -8 8 -8 0 0 -6 -11 -10 -25 -9 -14 2 -25 -1 -25 -6 0 -5 -5 -9 -11
-9 -5 0 -8 4 -5 9 3 5 -5 8 -19 7 -14 0 -25 -4 -25 -8 0 -4 -7 -5 -16 -1 -9 3
-20 0 -25 -8 -5 -8 -9 -9 -9 -3 0 6 -17 10 -39 10 -21 -1 -37 -4 -34 -8 7 -13
-12 -9 -26 5 -8 7 -11 7 -8 1 8 -14 -30 -26 -38 -13 -3 5 -14 3 -25 -3 -10 -7
-16 -17 -12 -23 3 -5 -1 -4 -10 3 -10 8 -18 9 -22 3 -4 -6 -13 -8 -20 -5 -8 3
-17 0 -21 -5 -3 -6 -11 -9 -16 -6 -5 4 -9 0 -9 -7 0 -9 -3 -9 -10 2 -7 11 -10
11 -10 2 0 -7 -4 -11 -9 -7 -5 3 -12 1 -16 -4 -8 -14 -43 -11 -107 12 -34 11
-55 24 -51 30 4 6 0 8 -10 4 -10 -3 -17 -2 -17 4 0 6 -4 7 -10 4 -5 -3 -10 -1
-10 4 0 6 -7 11 -16 11 -8 0 -12 5 -8 11 4 7 0 9 -14 5 -14 -5 -24 -1 -30 10
-6 11 -17 15 -31 11 -19 -5 -20 -3 -9 11 8 10 8 13 1 9 -6 -4 -19 0 -27 9 -9
8 -16 12 -16 8 0 -4 -10 1 -22 12 -12 10 -18 13 -14 7 4 -7 2 -13 -3 -13 -6 0
-11 7 -11 15 0 9 -6 12 -15 9 -8 -4 -15 -1 -15 5 0 6 -6 8 -14 5 -8 -3 -17 0
-22 7 -5 8 -3 10 6 4 9 -5 11 -4 6 4 -4 6 -11 9 -16 6 -5 -3 -15 2 -24 10 -10
11 -17 12 -22 4 -5 -8 -10 -6 -16 5 -5 9 -13 14 -19 11 -5 -4 -9 -1 -9 4 0 6
-9 11 -20 11 -11 0 -20 5 -20 11 0 5 -4 8 -9 4 -5 -3 -16 2 -24 10 -9 8 -27
15 -41 15 -14 0 -26 5 -26 11 0 5 -4 8 -9 5 -5 -3 -14 1 -21 10 -7 8 -19 13
-27 10 -7 -3 -13 -1 -13 5 0 6 -7 9 -15 5 -9 -3 -15 0 -15 9 0 8 -6 12 -14 9
-8 -3 -17 -1 -21 5 -3 6 -15 11 -26 11 -10 0 -19 5 -19 10 0 6 -12 10 -26 10
-14 0 -23 4 -19 9 3 6 -9 8 -27 6 -24 -3 -29 -2 -18 5 13 8 13 10 -2 11 -27 2
-32 4 -47 13 -10 7 -12 5 -7 -5 4 -8 1 -6 -7 3 -11 14 -16 15 -26 5 -10 -9
-12 -9 -9 3 2 10 -3 14 -14 12 -10 -2 -18 2 -18 8 0 5 -13 10 -30 10 -16 0
-30 4 -30 9 0 8 -56 25 -72 22 -5 0 -8 3 -8 8 0 5 -11 8 -25 7 -13 -2 -22 1
-19 5 3 5 -6 10 -20 10 -45 2 -51 5 -48 17 2 10 -3 10 -18 2 -16 -9 -22 -8
-26 5 -3 8 -17 15 -29 15 -13 0 -27 5 -30 10 -4 7 -13 7 -26 0 -15 -8 -19 -8
-17 2 2 8 -5 12 -15 10 -11 -2 -26 5 -34 15 -8 10 -11 11 -7 3 7 -12 5 -13 -8
-3 -8 7 -18 10 -21 6 -4 -3 -7 -1 -7 6 0 7 -5 9 -10 6 -6 -4 -21 0 -34 8 -17
12 -26 13 -35 4 -8 -8 -11 -8 -11 1 0 7 -3 11 -7 11 -22 -4 -33 2 -27 14 5 8
2 8 -9 -2 -13 -10 -17 -10 -17 -1 0 10 -3 10 -14 1 -10 -8 -15 -9 -18 -1 -2 6
-13 12 -26 13 -12 0 -22 5 -22 10 0 5 -6 4 -13 -2 -10 -8 -19 -6 -34 8 -15 15
-23 17 -32 8 -8 -8 -11 -8 -11 1 0 7 -6 12 -12 11 -28 -3 -39 1 -32 14 5 8 2
8 -9 -2 -13 -10 -17 -10 -17 -1 0 9 -4 9 -17 -1 -10 -8 -14 -9 -10 -2 4 6 3
14 -3 18 -5 3 -10 0 -10 -7 -1 -8 -6 -6 -15 6 -11 14 -15 16 -15 5 0 -9 -3
-10 -8 -3 -4 6 -15 10 -24 8 -10 -1 -20 2 -23 6 -3 5 -12 7 -20 3 -8 -3 -15 0
-15 6 0 6 -7 8 -16 4 -10 -4 -20 1 -26 11 -5 9 -14 14 -19 10 -6 -3 -18 3 -28
15 -10 11 -21 18 -25 14 -3 -3 -6 -1 -6 5 0 7 -7 12 -16 12 -8 0 -13 3 -11 8
3 4 -1 13 -9 20 -8 7 -14 10 -14 7 0 -3 -10 3 -22 14 -11 11 -24 18 -28 16 -3
-2 -12 4 -20 15 -7 10 -19 16 -26 13 -8 -3 -17 2 -20 11 -3 9 -12 16 -19 16
-7 0 -18 7 -25 15 -7 9 -15 13 -17 11 -3 -3 -15 4 -26 15 -12 11 -27 17 -34
15 -8 -3 -13 2 -13 12 0 13 -2 14 -9 3 -7 -11 -13 -9 -30 8 -12 12 -21 16 -21
9 0 -7 -5 -5 -11 5 -6 9 -14 15 -20 12 -5 -4 -9 -1 -9 4 0 6 -5 11 -11 11 -5
0 -7 -4 -4 -10 3 -6 -1 -7 -9 -4 -9 3 -13 10 -10 15 3 5 -2 6 -10 3 -11 -4
-16 0 -16 10 0 9 -5 16 -11 16 -5 0 -7 -4 -4 -10 3 -5 2 -10 -4 -10 -5 0 -13
5 -16 11 -4 6 -13 8 -21 5 -8 -3 -14 -2 -14 3 0 5 -11 7 -25 5 -14 -1 -32 4
-40 13 -8 8 -15 10 -15 5 0 -11 -25 -10 -36 1 -4 3 -15 2 -25 -4 -13 -6 -19
-6 -19 0 0 7 -9 7 -25 1 -17 -7 -25 -6 -25 1 0 8 -5 7 -15 -1 -11 -9 -15 -9
-15 -1 0 9 -5 9 -20 1 -14 -8 -20 -8 -20 0 0 7 -6 8 -19 0 -13 -7 -22 -7 -26
0 -8 13 -25 13 -25 0z m4910 -4620 c0 -5 -2 -10 -4 -10 -3 0 -8 5 -11 10 -3 6
-1 10 4 10 6 0 11 -4 11 -10z"/>
<path d="M12690 10176 c0 -2 7 -9 15 -16 13 -11 14 -10 9 4 -5 14 -24 23 -24
12z"/>
<path d="M2860 5070 c0 -5 5 -10 11 -10 5 0 7 5 4 10 -3 6 -8 10 -11 10 -2 0
-4 -4 -4 -10z"/>
<path d="M3506 4537 c3 -10 9 -15 12 -12 3 3 0 11 -7 18 -10 9 -11 8 -5 -6z"/>
</g>
</svg>
